#!OML:ASF H:\GeneralSubjects\Female5\Project 1\Capture day 1\Session 1\Female5.ASF
:FULLY-SPECIFIED
:DEGREES
95
root 5.11004 15.8343 5.85369 -171.775 -36.4973 -180.392
lowerback 3.86444 2.55598 -4.30203
upperback -11.1426 2.10313 -1.28659
thorax -14.5547 1.07459 0.7051
lowerneck -14.074 -4.09033 -0.892749
upperneck 33.0428 -10.4129 6.55873
head 14.0795 -4.58935 0.891775
rclavicle 4.85035e-014 1.98785e-015
rhumerus 8.25778 1.63219 -17.5781
rradius 98.205
rwrist 37.1072
rhand -64.3576 18.3438
rfingers 7.12502
rthumb -36.2896 352.099
lclavicle 4.85035e-014 1.98785e-015
lhumerus -52.6785 12.5225 62.0145
lradius 35.5386
lwrist -11.2623
lhand -26.5105 35.0789
lfingers 7.12502
lthumb 0.0526976 65.0586
rfemur 5.94459 23.9571 16.6935
rtibia -0.0675212
rfoot -54.4254 -29.71
rtoes 15.6094
lfemur 0.551477 -31.9387 -34.1514
ltibia -4.37379
lfoot -15.9574 25.1008
ltoes -64.7617
96
root 5.11324 15.8308 5.85759 -171.673 -36.5517 -180.449
lowerback 3.86568 2.52307 -4.30166
upperback -11.1629 2.05381 -1.29014
thorax -14.5774 1.04999 0.708918
lowerneck -13.928 -4.13938 -1.02736
upperneck 32.9417 -10.4177 6.54037
head 14.0069 -4.61637 0.912305
rclavicle 3.15074e-014 4.25399e-014
rhumerus 8.08149 2.97952 -16.2989
rradius 98.4536
rwrist 44.6173
rhand -66.2647 37.6741
rfingers 7.12502
rthumb -38.0929 371.9
lclavicle 3.15074e-014 4.25399e-014
lhumerus -52.6752 12.7816 61.8382
lradius 35.5313
lwrist -11.3128
lhand -26.2053 35.7677
lfingers 7.12502
lthumb 0.347486 65.7472
rfemur 5.84563 23.9018 16.6078
rtibia -0.031584
rfoot -54.3726 -29.6759
rtoes 15.7799
lfemur 0.409841 -31.6243 -34.1277
ltibia -4.41764
lfoot -15.421 24.9701
ltoes -64.9652
97
root 5.12103 15.8302 5.86254 -171.581 -36.6336 -180.495
lowerback 3.94001 2.51141 -4.30331
upperback -11.1631 2.02776 -1.34534
thorax -14.6218 1.03415 0.650301
lowerneck -14.0672 -4.20854 -1.05745
upperneck 32.9861 -10.5224 6.54859
head 14.0663 -4.65689 0.898343
rclavicle -9.44227e-014 -5.64548e-014
rhumerus 7.94901 3.08818 -15.5172
rradius 98.6107
rwrist 44.9127
rhand -65.6965 39.1359
rfingers 7.12502
rthumb -37.5562 373.217
lclavicle -9.44227e-014 -5.64548e-014
lhumerus -52.5793 12.8112 61.7736
lradius 35.5376
lwrist -11.2542
lhand -25.933 36.5151
lfingers 7.12502
lthumb 0.610445 66.494
rfemur 5.75145 24.0351 16.5976
rtibia 0.0439142
rfoot -54.5421 -29.7386
rtoes 16.109
lfemur 0.210305 -31.429 -34.0387
ltibia -4.40648
lfoot -15.063 24.8601
ltoes -65.2173
98
root 5.13127 15.8302 5.86771 -171.477 -36.7175 -180.53
lowerback 3.97274 2.47836 -4.40764
upperback -11.1161 1.97856 -1.33823
thorax -14.5895 1.0253 0.723874
lowerneck -14.2672 -4.23998 -1.12633
upperneck 32.9521 -10.5471 6.60339
head 14.1053 -4.65501 0.922549
rclavicle 8.69683e-014 4.53229e-014
rhumerus 7.92647 2.10949 -15.3784
rradius 98.0726
rwrist 41.7229
rhand -65.3931 24.6788
rfingers 7.12502
rthumb -37.2694 358.685
lclavicle 8.69683e-014 4.53229e-014
lhumerus -52.5459 12.6871 61.9632
lradius 35.6258
lwrist -10.8017
lhand -25.2201 37.8448
lfingers 7.12502
lthumb 1.29895 67.8206
rfemur 5.61598 24.1937 16.5892
rtibia 0.130782
rfoot -54.7659 -29.8508
rtoes 16.3987
lfemur 0.0134026 -31.5074 -33.9355
ltibia -4.40153
lfoot -15.0756 24.8825
ltoes -65.3555
99
root 5.14204 15.8293 5.8737 -171.403 -36.8326 -180.472
lowerback 3.95927 2.42458 -4.46651
upperback -11.062 1.91625 -1.28314
thorax -14.5168 1.00893 0.829372
lowerneck -15.5016 -4.17018 -0.894101
upperneck 33.1981 -10.4664 6.52337
head 14.4713 -4.52637 0.828438
rclavicle -6.36111e-015 -1.98785e-015
rhumerus 7.87757 -0.276394 -16.0493
rradius 97.3011
rwrist 37.3613
rhand -64.6615 21.4448
rfingers 7.12502
rthumb -36.5773 355.272
lclavicle -6.36111e-015 -1.98785e-015
lhumerus -52.4332 12.4307 62.2678
lradius 35.5578
lwrist -9.97398
lhand -24.0699 39.523
lfingers 7.12502
lthumb 2.4099 69.4891
rfemur 5.43652 24.1852 16.6163
rtibia 0.198977
rfoot -54.8769 -29.8214
rtoes 16.5228
lfemur -0.227318 -31.4444 -33.7336
ltibia -4.42315
lfoot -14.7843 24.7678
ltoes -65.4485
100
root 5.15428 15.8298 5.87989 -171.364 -36.9921 -180.346
lowerback 4.00413 2.38315 -4.43831
upperback -11.0589 1.86774 -1.24958
thorax -14.5384 0.986841 0.857449
lowerneck -15.2884 -4.25479 -1.11315
upperneck 33.0085 -10.5951 6.78102
head 14.3777 -4.58822 0.953691
rclavicle 6.0033e-014 3.1408e-014
rhumerus 7.73978 -3.84366 -17.5252
rradius 96.3123
rwrist 33.3538
rhand -64.1457 15.3121
rfingers 7.12502
rthumb -36.089 349.017
lclavicle 6.0033e-014 3.1408e-014
lhumerus -52.2744 12.1412 62.4143
lradius 35.4672
lwrist -9.65872
lhand -24.4281 38.8974
lfingers 7.12502
lthumb 2.06389 68.8672
rfemur 5.24219 24.1153 16.7027
rtibia 0.28263
rfoot -54.9891 -29.706
rtoes 16.4534
lfemur -0.529518 -31.2923 -33.4436
ltibia -4.34949
lfoot -14.5991 24.4287
ltoes -65.3551
